<svg width="81" height="81" viewBox="0 0 81 81" fill="none" xmlns="http://www.w3.org/2000/svg">
<g filter="url(#filter0_ii)">
<circle cx="40.5" cy="39.5" r="36.5" fill="url(#paint0_linear)"/>
</g>
<g filter="url(#filter1_d)">
<path d="M77.5 39.5C77.5 59.9345 60.9345 76.5 40.5 76.5C20.0655 76.5 3.5 59.9345 3.5 39.5C3.5 19.0655 20.0655 2.5 40.5 2.5C60.9345 2.5 77.5 19.0655 77.5 39.5Z" stroke="url(#paint1_linear)" stroke-width="3"/>
<path d="M77.5 39.5C77.5 59.9345 60.9345 76.5 40.5 76.5C20.0655 76.5 3.5 59.9345 3.5 39.5C3.5 19.0655 20.0655 2.5 40.5 2.5C60.9345 2.5 77.5 19.0655 77.5 39.5Z" stroke="url(#paint2_radial)" stroke-width="3"/>
<path d="M77.5 39.5C77.5 59.9345 60.9345 76.5 40.5 76.5C20.0655 76.5 3.5 59.9345 3.5 39.5C3.5 19.0655 20.0655 2.5 40.5 2.5C60.9345 2.5 77.5 19.0655 77.5 39.5Z" stroke="url(#paint3_radial)" stroke-width="3"/>
<path d="M77.5 39.5C77.5 59.9345 60.9345 76.5 40.5 76.5C20.0655 76.5 3.5 59.9345 3.5 39.5C3.5 19.0655 20.0655 2.5 40.5 2.5C60.9345 2.5 77.5 19.0655 77.5 39.5Z" stroke="url(#paint4_radial)" stroke-width="3"/>
</g>
<defs>
<filter id="filter0_ii" x="3" y="2" width="75" height="75" filterUnits="userSpaceOnUse" color-interpolation-filters="sRGB">
<feFlood flood-opacity="0" result="BackgroundImageFix"/>
<feBlend mode="normal" in="SourceGraphic" in2="BackgroundImageFix" result="shape"/>
<feColorMatrix in="SourceAlpha" type="matrix" values="0 0 0 0 0 0 0 0 0 0 0 0 0 0 0 0 0 0 127 0" result="hardAlpha"/>
<feOffset dx="-1" dy="-1"/>
<feGaussianBlur stdDeviation="1"/>
<feComposite in2="hardAlpha" operator="arithmetic" k2="-1" k3="1"/>
<feColorMatrix type="matrix" values="0 0 0 0 0.862745 0 0 0 0 0.835294 0 0 0 0 0.752941 0 0 0 0.5 0"/>
<feBlend mode="normal" in2="shape" result="effect1_innerShadow"/>
<feColorMatrix in="SourceAlpha" type="matrix" values="0 0 0 0 0 0 0 0 0 0 0 0 0 0 0 0 0 0 127 0" result="hardAlpha"/>
<feOffset dx="1" dy="1"/>
<feGaussianBlur stdDeviation="1"/>
<feComposite in2="hardAlpha" operator="arithmetic" k2="-1" k3="1"/>
<feColorMatrix type="matrix" values="0 0 0 0 1 0 0 0 0 0.976471 0 0 0 0 0.886275 0 0 0 0.3 0"/>
<feBlend mode="normal" in2="effect1_innerShadow" result="effect2_innerShadow"/>
</filter>
<filter id="filter1_d" x="0" y="0" width="81" height="81" filterUnits="userSpaceOnUse" color-interpolation-filters="sRGB">
<feFlood flood-opacity="0" result="BackgroundImageFix"/>
<feColorMatrix in="SourceAlpha" type="matrix" values="0 0 0 0 0 0 0 0 0 0 0 0 0 0 0 0 0 0 127 0"/>
<feOffset dy="1"/>
<feGaussianBlur stdDeviation="1"/>
<feColorMatrix type="matrix" values="0 0 0 0 0 0 0 0 0 0 0 0 0 0 0 0 0 0 0.25 0"/>
<feBlend mode="normal" in2="BackgroundImageFix" result="effect1_dropShadow"/>
<feBlend mode="normal" in="SourceGraphic" in2="effect1_dropShadow" result="shape"/>
</filter>
<linearGradient id="paint0_linear" x1="0.499998" y1="81.5" x2="87" y2="-0.999997" gradientUnits="userSpaceOnUse">
<stop stop-color="#FBF2DB"/>
<stop offset="0.0001" stop-color="#FBF2DB"/>
<stop offset="0.484375" stop-color="#F8F7F4"/>
<stop offset="0.958333" stop-color="#FBF2DB"/>
</linearGradient>
<linearGradient id="paint1_linear" x1="12.7574" y1="10.625" x2="17.8529" y2="16.2868" gradientUnits="userSpaceOnUse">
<stop stop-color="#FFF6BD"/>
<stop offset="1" stop-color="#B8A165"/>
</linearGradient>
<radialGradient id="paint2_radial" cx="0" cy="0" r="1" gradientUnits="userSpaceOnUse" gradientTransform="translate(67.6765 67.2426) rotate(-135) scale(8.00695 70.9002)">
<stop stop-color="#FFF6BD"/>
<stop offset="0.869792" stop-color="#B8A165"/>
<stop offset="0.958333" stop-color="#B8A165" stop-opacity="0"/>
</radialGradient>
<radialGradient id="paint3_radial" cx="0" cy="0" r="1" gradientUnits="userSpaceOnUse" gradientTransform="translate(20.6838 19.1176) rotate(-135) scale(8.80764 21.4515)">
<stop stop-color="#FFF6BD" stop-opacity="0"/>
<stop offset="0.0833333" stop-color="#FFF6BD"/>
<stop offset="0.869792" stop-color="#B8A165"/>
<stop offset="0.958333" stop-color="#B8A165" stop-opacity="0"/>
</radialGradient>
<radialGradient id="paint4_radial" cx="0" cy="0" r="1" gradientUnits="userSpaceOnUse" gradientTransform="translate(63.1471 61.5809) rotate(-135) scale(5.60486 18.9384)">
<stop stop-color="#FFF6BD" stop-opacity="0"/>
<stop offset="0.0833333" stop-color="#FFF6BD"/>
<stop offset="0.869792" stop-color="#B8A165"/>
<stop offset="0.958333" stop-color="#B8A165" stop-opacity="0"/>
</radialGradient>
</defs>
</svg>
